<?xml version="1.0" standalone="no"?>
<!DOCTYPE svg PUBLIC "-//W3C//DTD SVG 20010904//EN"
 "http://www.w3.org/TR/2001/REC-SVG-20010904/DTD/svg10.dtd">
<svg version="1.0" xmlns="http://www.w3.org/2000/svg"
 width="66.000000pt" height="82.000000pt" viewBox="0 0 66.000000 82.000000"
 preserveAspectRatio="xMidYMid meet">
<metadata>
Created by potrace 1.10, written by Peter Selinger 2001-2011
</metadata>
<g transform="translate(0.000000,82.000000) scale(0.100000,-0.100000)"
fill="#000000" stroke="none">
<path d="M193 652 c-78 -59 -142 -110 -143 -113 0 -3 6 -14 14 -24 12 -17 23
-10 146 103 l134 121 85 -78 c47 -44 108 -99 134 -124 l48 -45 11 24 c7 15 8
28 2 33 -39 34 -275 211 -281 210 -4 0 -72 -48 -150 -107z"/>
<path d="M316 644 c-21 -21 -20 -57 2 -77 24 -22 45 -21 65 1 47 52 -18 125
-67 76z"/>
<path d="M232 558 c-20 -20 -14 -59 18 -126 29 -62 40 -119 20 -107 -5 3 -10
15 -10 26 0 33 -25 16 -28 -19 -3 -33 17 -78 71 -159 19 -29 40 -68 47 -88 6
-19 15 -35 19 -35 4 0 23 21 41 47 29 40 34 56 35 103 0 57 -22 140 -37 140
-5 0 -20 -7 -33 -16 -28 -18 -25 -35 5 -29 13 3 17 -1 13 -11 -3 -8 0 -14 6
-14 18 0 14 -107 -6 -129 -16 -19 -17 -18 -49 32 -19 29 -34 56 -34 60 0 5 -9
20 -19 33 -20 25 -20 25 0 59 14 24 18 39 12 52 -5 10 -8 28 -7 41 0 12 -2 22
-6 22 -4 0 -10 8 -13 18 -2 9 -8 26 -13 36 -6 17 -4 18 22 11 16 -5 49 -11 73
-14 34 -5 46 -11 52 -29 5 -13 5 -21 1 -18 -4 2 -18 -15 -31 -40 -13 -24 -27
-44 -31 -44 -4 0 -10 -9 -13 -20 -7 -26 -3 -25 38 6 37 28 95 132 95 171 0 21
-3 23 -27 16 -51 -14 -130 -6 -162 16 -34 25 -34 24 -49 9z"/>
</g>
</svg>
