<?xml version="1.0" standalone="no"?>
<!DOCTYPE svg PUBLIC "-//W3C//DTD SVG 20010904//EN"
 "http://www.w3.org/TR/2001/REC-SVG-20010904/DTD/svg10.dtd">
<svg version="1.0" xmlns="http://www.w3.org/2000/svg"
 width="66.000000pt" height="82.000000pt" viewBox="0 0 66.000000 82.000000"
 preserveAspectRatio="xMidYMid meet">
<metadata>
Created by potrace 1.16, written by Peter Selinger 2001-2019
</metadata>
<g transform="translate(0.000000,82.000000) scale(0.100000,-0.100000)"
fill="#000000" stroke="none">
<path d="M210 663 c-69 -52 -133 -101 -143 -108 -15 -11 -17 -17 -8 -34 7 -12
15 -21 19 -21 4 1 65 54 137 120 l130 119 60 -57 c33 -30 92 -87 132 -124 67
-64 72 -68 82 -49 6 11 11 24 11 30 0 10 -274 221 -287 220 -4 0 -64 -43 -133
-96z"/>
<path d="M232 558 c-19 -19 -14 -64 12 -116 13 -26 26 -60 30 -77 l7 -30 -19
24 c-17 21 -20 21 -25 6 -16 -41 -6 -83 35 -146 22 -35 52 -88 66 -117 13 -29
29 -51 34 -50 6 2 25 23 42 47 27 38 31 51 31 109 0 41 -7 82 -17 105 l-17 38
-28 -18 c-24 -15 -23 -12 10 26 44 49 76 113 77 151 0 25 -1 26 -68 22 -61 -4
-103 6 -152 35 -3 2 -11 -2 -18 -9z"/>
</g>
</svg>
